<svg width="20" height="20" viewBox="0 0 20 20" fill="none" xmlns="http://www.w3.org/2000/svg">
<path d="M16.6665 15.833V16.333H17.1665V15.833H16.6665ZM12.8534 11.3128C12.6581 11.1175 12.3415 11.1175 12.1463 11.3128C11.951 11.508 11.951 11.8246 12.1463 12.0199L12.8534 11.3128ZM16.1665 10.833V15.833H17.1665V10.833H16.1665ZM16.6665 15.333H11.6665V16.333H16.6665V15.333ZM17.0201 15.4795L12.8534 11.3128L12.1463 12.0199L16.313 16.1866L17.0201 15.4795Z" fill="#222222"/>
<path d="M3.3335 15.833H2.8335V16.333H3.3335V15.833ZM7.85372 12.0199C8.04898 11.8246 8.04898 11.508 7.85372 11.3128C7.65845 11.1175 7.34187 11.1175 7.14661 11.3128L7.85372 12.0199ZM2.8335 10.833V15.833H3.8335V10.833H2.8335ZM3.3335 16.333H8.3335V15.333H3.3335V16.333ZM3.68705 16.1866L7.85372 12.0199L7.14661 11.3128L2.97994 15.4795L3.68705 16.1866Z" fill="#222222"/>
<path d="M16.6665 3.33301H17.1665V2.83301H16.6665V3.33301ZM12.1463 7.14612C11.951 7.34138 11.951 7.65797 12.1463 7.85323C12.3415 8.04849 12.6581 8.04849 12.8534 7.85323L12.1463 7.14612ZM17.1665 8.33301V3.33301H16.1665V8.33301H17.1665ZM16.6665 2.83301H11.6665V3.83301H16.6665V2.83301ZM16.313 2.97945L12.1463 7.14612L12.8534 7.85323L17.0201 3.68656L16.313 2.97945Z" fill="#222222"/>
<path d="M3.3335 3.33301V2.83301H2.8335V3.33301H3.3335ZM7.14661 7.85323C7.34187 8.04849 7.65845 8.04849 7.85372 7.85323C8.04898 7.65797 8.04898 7.34138 7.85372 7.14612L7.14661 7.85323ZM3.8335 8.33301V3.33301H2.8335V8.33301H3.8335ZM3.3335 3.83301H8.3335V2.83301H3.3335V3.83301ZM2.97994 3.68656L7.14661 7.85323L7.85372 7.14612L3.68705 2.97945L2.97994 3.68656Z" fill="#222222"/>
</svg>
