<svg width="20" height="14" viewBox="0 0 20 14" fill="none" xmlns="http://www.w3.org/2000/svg">
<path d="M19.5 13.5V2.5C19.5 1.39543 18.6046 0.5 17.5 0.5H13.5C12.3954 0.5 11.5 1.39543 11.5 2.5V13.5" stroke="#222222" stroke-linecap="round" stroke-linejoin="round"/>
<path d="M8.5 13.5V5.5H1.5C0.947715 5.5 0.5 5.94772 0.5 6.5V13.5" stroke="#222222" stroke-linecap="round" stroke-linejoin="round"/>
<path d="M1.5 5.5H19.5V8.5H0.5V6.5C0.5 5.94772 0.947715 5.5 1.5 5.5Z" stroke="#222222" stroke-linecap="round" stroke-linejoin="round"/>
<path d="M9 8V7C9 6.44772 9.44771 6 10 6H19C19.5523 6 20 6.44772 20 7V8C20 8.55228 19.5523 9 19 9H10C9.44772 9 9 8.55228 9 8Z" fill="#222222"/>
</svg>
