<svg width="92" height="20" viewBox="0 0 92 20" fill="none" xmlns="http://www.w3.org/2000/svg">
<path d="M33.346 15V7.344L31.72 8.322V7.332L33.346 6.36H34.24V15H33.346ZM36.0753 16.254L36.1293 15.816C36.2893 15.828 36.4053 15.796 36.4773 15.72C36.5493 15.644 36.5933 15.542 36.6093 15.414C36.6253 15.286 36.6293 15.148 36.6213 15H36.0753V13.734H37.1013V15.24C37.1013 15.608 37.0073 15.884 36.8193 16.068C36.6353 16.252 36.3873 16.314 36.0753 16.254ZM39.3028 14.994L39.3088 14.19L43.2148 10.662C43.5508 10.358 43.7728 10.07 43.8808 9.798C43.9928 9.522 44.0488 9.234 44.0488 8.934C44.0488 8.578 43.9648 8.256 43.7968 7.968C43.6288 7.68 43.4028 7.452 43.1188 7.284C42.8348 7.112 42.5168 7.026 42.1648 7.026C41.7968 7.026 41.4688 7.114 41.1808 7.29C40.8928 7.466 40.6648 7.698 40.4968 7.986C40.3328 8.274 40.2528 8.588 40.2568 8.928H39.3568C39.3568 8.404 39.4808 7.934 39.7288 7.518C39.9768 7.102 40.3128 6.776 40.7368 6.54C41.1608 6.3 41.6408 6.18 42.1768 6.18C42.7008 6.18 43.1708 6.304 43.5868 6.552C44.0068 6.796 44.3368 7.128 44.5768 7.548C44.8208 7.964 44.9428 8.428 44.9428 8.94C44.9428 9.3 44.8988 9.618 44.8108 9.894C44.7268 10.166 44.5928 10.42 44.4088 10.656C44.2288 10.888 43.9988 11.128 43.7188 11.376L40.2508 14.508L40.1128 14.148H44.9428V14.994H39.3028ZM49.3666 15.18C48.8346 15.18 48.3546 15.056 47.9266 14.808C47.5026 14.56 47.1666 14.224 46.9186 13.8C46.6706 13.372 46.5466 12.892 46.5466 12.36V9C46.5466 8.468 46.6706 7.99 46.9186 7.566C47.1666 7.138 47.5026 6.8 47.9266 6.552C48.3546 6.304 48.8346 6.18 49.3666 6.18C49.8986 6.18 50.3766 6.304 50.8006 6.552C51.2286 6.8 51.5666 7.138 51.8146 7.566C52.0626 7.99 52.1866 8.468 52.1866 9V12.36C52.1866 12.892 52.0626 13.372 51.8146 13.8C51.5666 14.224 51.2286 14.56 50.8006 14.808C50.3766 15.056 49.8986 15.18 49.3666 15.18ZM49.3666 14.328C49.7226 14.328 50.0466 14.242 50.3386 14.07C50.6306 13.894 50.8626 13.66 51.0346 13.368C51.2066 13.076 51.2926 12.754 51.2926 12.402V8.958C51.2926 8.602 51.2066 8.278 51.0346 7.986C50.8626 7.694 50.6306 7.462 50.3386 7.29C50.0466 7.114 49.7226 7.026 49.3666 7.026C49.0106 7.026 48.6866 7.114 48.3946 7.29C48.1026 7.462 47.8706 7.694 47.6986 7.986C47.5266 8.278 47.4406 8.602 47.4406 8.958V12.402C47.4406 12.754 47.5266 13.076 47.6986 13.368C47.8706 13.66 48.1026 13.894 48.3946 14.07C48.6866 14.242 49.0106 14.328 49.3666 14.328ZM53.7908 14.994L53.7968 14.19L57.7028 10.662C58.0388 10.358 58.2608 10.07 58.3688 9.798C58.4808 9.522 58.5368 9.234 58.5368 8.934C58.5368 8.578 58.4528 8.256 58.2848 7.968C58.1168 7.68 57.8908 7.452 57.6068 7.284C57.3228 7.112 57.0048 7.026 56.6528 7.026C56.2848 7.026 55.9568 7.114 55.6688 7.29C55.3808 7.466 55.1528 7.698 54.9848 7.986C54.8208 8.274 54.7408 8.588 54.7448 8.928H53.8448C53.8448 8.404 53.9688 7.934 54.2168 7.518C54.4648 7.102 54.8008 6.776 55.2248 6.54C55.6488 6.3 56.1288 6.18 56.6648 6.18C57.1888 6.18 57.6588 6.304 58.0748 6.552C58.4948 6.796 58.8248 7.128 59.0648 7.548C59.3088 7.964 59.4308 8.428 59.4308 8.94C59.4308 9.3 59.3868 9.618 59.2988 9.894C59.2148 10.166 59.0808 10.42 58.8968 10.656C58.7168 10.888 58.4868 11.128 58.2068 11.376L54.7388 14.508L54.6008 14.148H59.4308V14.994H53.7908ZM66.5969 15.18C65.9929 15.18 65.4489 15.08 64.9649 14.88C64.4849 14.676 64.0869 14.388 63.7709 14.016C63.4589 13.644 63.2549 13.202 63.1589 12.69L64.0589 12.54C64.2029 13.1 64.5069 13.54 64.9709 13.86C65.4349 14.176 65.9889 14.334 66.6329 14.334C67.0569 14.334 67.4369 14.268 67.7729 14.136C68.1089 14 68.3729 13.808 68.5649 13.56C68.7569 13.312 68.8529 13.018 68.8529 12.678C68.8529 12.454 68.8129 12.264 68.7329 12.108C68.6529 11.948 68.5469 11.816 68.4149 11.712C68.2829 11.608 68.1389 11.522 67.9829 11.454C67.8269 11.382 67.6749 11.324 67.5269 11.28L65.3369 10.626C65.0729 10.55 64.8289 10.454 64.6049 10.338C64.3809 10.218 64.1849 10.076 64.0169 9.912C63.8529 9.744 63.7249 9.548 63.6329 9.324C63.5409 9.1 63.4949 8.844 63.4949 8.556C63.4949 8.068 63.6229 7.646 63.8789 7.29C64.1349 6.934 64.4849 6.66 64.9289 6.468C65.3729 6.276 65.8789 6.182 66.4469 6.186C67.0229 6.186 67.5369 6.288 67.9889 6.492C68.4449 6.696 68.8209 6.988 69.1169 7.368C69.4129 7.744 69.6089 8.19 69.7049 8.706L68.7809 8.874C68.7209 8.498 68.5829 8.172 68.3669 7.896C68.1509 7.62 67.8749 7.408 67.5389 7.26C67.2069 7.108 66.8409 7.03 66.4409 7.026C66.0529 7.026 65.7069 7.092 65.4029 7.224C65.1029 7.352 64.8649 7.528 64.6889 7.752C64.5129 7.976 64.4249 8.232 64.4249 8.52C64.4249 8.812 64.5049 9.046 64.6649 9.222C64.8289 9.398 65.0289 9.536 65.2649 9.636C65.5049 9.736 65.7369 9.818 65.9609 9.882L67.6529 10.38C67.8289 10.428 68.0349 10.498 68.2709 10.59C68.5109 10.678 68.7429 10.806 68.9669 10.974C69.1949 11.138 69.3829 11.354 69.5309 11.622C69.6789 11.89 69.7529 12.23 69.7529 12.642C69.7529 13.042 69.6729 13.4 69.5129 13.716C69.3569 14.032 69.1349 14.298 68.8469 14.514C68.5629 14.73 68.2289 14.894 67.8449 15.006C67.4649 15.122 67.0489 15.18 66.5969 15.18ZM73.6654 15.18C73.0614 15.18 72.5454 15.03 72.1174 14.73C71.6894 14.426 71.3614 14.016 71.1334 13.5C70.9054 12.984 70.7914 12.402 70.7914 11.754C70.7914 11.11 70.9034 10.53 71.1274 10.014C71.3554 9.498 71.6814 9.09 72.1054 8.79C72.5294 8.49 73.0374 8.34 73.6294 8.34C74.2374 8.34 74.7494 8.488 75.1654 8.784C75.5814 9.08 75.8954 9.486 76.1074 10.002C76.3234 10.514 76.4314 11.098 76.4314 11.754C76.4314 12.398 76.3254 12.98 76.1134 13.5C75.9014 14.016 75.5894 14.426 75.1774 14.73C74.7654 15.03 74.2614 15.18 73.6654 15.18ZM73.7554 14.358C74.2154 14.358 74.5954 14.246 74.8954 14.022C75.1954 13.798 75.4194 13.49 75.5674 13.098C75.7154 12.702 75.7894 12.254 75.7894 11.754C75.7894 11.246 75.7154 10.798 75.5674 10.41C75.4194 10.018 75.1954 9.712 74.8954 9.492C74.5994 9.272 74.2254 9.162 73.7734 9.162C73.3094 9.162 72.9254 9.276 72.6214 9.504C72.3174 9.732 72.0914 10.042 71.9434 10.434C71.7994 10.826 71.7274 11.266 71.7274 11.754C71.7274 12.246 71.8014 12.69 71.9494 13.086C72.1014 13.478 72.3274 13.788 72.6274 14.016C72.9274 14.244 73.3034 14.358 73.7554 14.358ZM75.6934 17.88V13.398H75.7894V8.52H76.5814V17.88H75.6934ZM80.987 15V6.36H85.949V7.242H81.869V10.242H85.229V11.118H81.869V15H80.987ZM90.7219 15C90.3579 15.076 89.9979 15.106 89.6419 15.09C89.2899 15.074 88.9739 14.998 88.6939 14.862C88.4179 14.726 88.2079 14.514 88.0639 14.226C87.9479 13.986 87.8839 13.744 87.8719 13.5C87.8639 13.252 87.8599 12.97 87.8599 12.654V6.72H88.7359V12.618C88.7359 12.89 88.7379 13.118 88.7419 13.302C88.7499 13.482 88.7919 13.642 88.8679 13.782C89.0119 14.05 89.2399 14.21 89.5519 14.262C89.8679 14.314 90.2579 14.302 90.7219 14.226V15ZM86.4739 9.276V8.52H90.7219V9.276H86.4739Z" fill="#5F6268"/>
<path d="M16.6665 15.833V16.333H17.1665V15.833H16.6665ZM12.8534 11.3128C12.6581 11.1175 12.3415 11.1175 12.1463 11.3128C11.951 11.508 11.951 11.8246 12.1463 12.0199L12.8534 11.3128ZM16.1665 10.833V15.833H17.1665V10.833H16.1665ZM16.6665 15.333H11.6665V16.333H16.6665V15.333ZM17.0201 15.4795L12.8534 11.3128L12.1463 12.0199L16.313 16.1866L17.0201 15.4795Z" fill="#222222"/>
<path d="M3.3335 15.833H2.8335V16.333H3.3335V15.833ZM7.85372 12.0199C8.04898 11.8246 8.04898 11.508 7.85372 11.3128C7.65845 11.1175 7.34187 11.1175 7.14661 11.3128L7.85372 12.0199ZM2.8335 10.833V15.833H3.8335V10.833H2.8335ZM3.3335 16.333H8.3335V15.333H3.3335V16.333ZM3.68705 16.1866L7.85372 12.0199L7.14661 11.3128L2.97994 15.4795L3.68705 16.1866Z" fill="#222222"/>
<path d="M16.6665 3.33301H17.1665V2.83301H16.6665V3.33301ZM12.1463 7.14612C11.951 7.34138 11.951 7.65797 12.1463 7.85323C12.3415 8.04849 12.6581 8.04849 12.8534 7.85323L12.1463 7.14612ZM17.1665 8.33301V3.33301H16.1665V8.33301H17.1665ZM16.6665 2.83301H11.6665V3.83301H16.6665V2.83301ZM16.313 2.97945L12.1463 7.14612L12.8534 7.85323L17.0201 3.68656L16.313 2.97945Z" fill="#222222"/>
<path d="M3.3335 3.33301V2.83301H2.8335V3.33301H3.3335ZM7.14661 7.85323C7.34187 8.04849 7.65845 8.04849 7.85372 7.85323C8.04898 7.65797 8.04898 7.34138 7.85372 7.14612L7.14661 7.85323ZM3.8335 8.33301V3.33301H2.8335V8.33301H3.8335ZM3.3335 3.83301H8.3335V2.83301H3.3335V3.83301ZM2.97994 3.68656L7.14661 7.85323L7.85372 7.14612L3.68705 2.97945L2.97994 3.68656Z" fill="#222222"/>
</svg>
